<svg width="64" height="64" viewBox="0 0 64 64" fill="none" xmlns="http://www.w3.org/2000/svg">
<g clip-path="url(#clip0_31_2)">
<path d="M63.6074 32C63.6074 49.673 49.3683 64 31.8038 64C14.2393 64 0 49.673 0 32C0 14.327 14.239 -0.000244141 31.8038 -0.000244141C49.3686 -0.000244141 63.6074 14.327 63.6074 32Z" fill="white"/>
<path d="M31.5379 11.3764C32.6575 12.0223 33.8453 12.8536 34.7491 13.7349L34.3941 14.0919C32.61 13.902 30.7311 14.1392 29.0397 14.1653C28.8508 13.9748 28.4714 13.6885 28.8251 13.4492L31.5379 11.3764ZM63.0818 33.5592C63.1055 34.3651 63.1813 35.0573 62.8672 35.8824C59.608 36.8105 57.4673 33.3563 54.305 33.877L54.6625 35.6674C57.588 35.7638 59.4156 38.5722 62.4378 38.4516C62.0085 39.3099 62.6294 41.5716 60.7273 40.6679C58.7523 40.1926 57.3244 38.4516 55.1607 38.4516C54.8997 38.9313 55.0651 39.5957 55.019 40.1636C57.3019 40.5219 58.9438 42.4535 61.2257 42.81C61.0111 43.5951 60.7984 44.4743 60.1553 44.9528C58.2989 44.5005 56.8484 42.8314 54.8718 42.8792L54.5201 44.5232C56.3981 44.5715 57.6122 46.2352 59.3001 46.7347C59.3465 47.428 58.7275 48.048 58.3704 48.6668C56.8719 48.2164 55.7293 46.9275 54.0167 47.0228C53.9931 46.3768 54.376 45.6437 54.2313 44.9529C52.3081 45.5257 51.0186 43.7369 49.5932 42.6637C49.5524 39.1525 45.8596 36.8491 45.6646 33.5594C45.6277 32.8385 45.7509 32.1183 46.0256 31.4508C47.2392 28.6419 46.858 24.9947 45.5273 22.3757C45.1225 21.6862 44.4065 21.1424 43.7387 20.737C44.7154 22.8098 45.9063 25.2588 45.3119 27.8063C45.2431 29.7734 44.0832 31.663 44.0702 33.5594C44.0596 34.2731 44.2422 34.9763 44.5986 35.5945C46.1452 38.3836 48.929 41.0244 47.8823 44.5228C47.5945 45.5974 46.7379 46.4281 46.5237 47.5216C48.3336 49.0225 50.0452 50.7135 52.4469 50.8085C53.3026 50.2614 52.8272 47.8351 54.5876 48.9544L57.1581 50.2416C56.9709 50.9302 56.3947 51.5475 55.873 52.0218C54.8977 51.5468 53.9465 50.977 52.7303 51.0235C52.3719 51.4045 52.0634 51.832 52.0906 52.3784C52.9415 52.5308 53.747 52.874 54.4467 53.3823C54.1146 54.0979 53.4677 54.546 52.8732 55.0943L50.8795 54.3807C50.5466 54.8575 49.8551 55.3584 50.0977 55.8816C50.5477 56.0742 51.0467 56.3349 51.3777 56.669C50.4978 57.6214 49.3825 58.2341 48.3088 58.8803C47.3843 55.8549 44.3376 53.7345 44.5994 50.236L44.4577 50.0942C43.7418 50.9003 43.9809 52.1889 44.027 53.2349C44.884 55.4259 46.9282 57.1184 47.2383 59.5213C46.8803 60.1398 46.0736 60.2632 45.4541 60.5247C45.5264 56.1926 38.9608 52.9068 43.1713 48.5246C44.5753 46.3788 46.9278 44.331 46.0943 41.3767C45.2386 38.5241 42.2116 36.7567 42.2383 33.5593L42.2433 33.3097C42.9324 29.9753 45.0269 26.427 43.3137 22.8796C42.836 21.4528 41.7692 19.8314 40.3184 19.235C42.4816 21.7134 43.3391 25.7576 42.1017 29.093C41.4778 30.4198 40.619 32.0002 40.533 33.5602H40.5274C40.4638 34.408 40.6915 35.2521 41.1727 35.9526C42.8149 38.6207 45.668 41.551 44.0268 45.0277C42.1716 47.8125 38.9366 50.6452 40.7435 54.3133C42.0515 56.5036 44.0753 58.6895 43.5291 61.3824L41.3886 62.0962C42.8157 57.0735 35.8212 54.1221 38.7496 49.0973C40.5571 46.4069 43.7908 43.8823 41.96 40.3113C40.8658 38.0987 38.6053 36.7895 38.6763 34.024L38.7543 33.5595C39.4909 29.6382 42.4691 25.926 40.3865 21.7356C39.7716 20.4067 38.7788 19.2887 37.5324 18.5218L37.4593 18.5949C39.8867 20.9522 40.625 24.8309 39.3162 27.9487C38.7057 29.7779 37.3655 31.6005 37.0932 33.5601C36.9447 34.5541 37.1247 35.5694 37.606 36.4515C39.152 38.9021 41.8632 41.5016 40.1714 44.67C38.3898 47.2867 35.4155 49.8333 36.6035 53.2363C37.9123 56.2137 40.6444 59.0503 39.1694 62.742L36.9602 63.2413C38.7193 59.6436 36.0816 56.0733 34.5358 52.9531C32.6557 48.4762 38.5752 46.3325 38.6704 42.2397C38.648 39.5977 35.8421 38.0976 35.2496 35.6687C34.0351 34.643 32.7765 36.0762 31.3248 35.8106C30.2533 36.0261 28.6073 34.3339 27.9675 36.1684C27.2059 38.8577 23.7348 40.8346 25.26 44.0246C26.7122 46.8592 30.2048 48.9318 29.038 52.6004C27.9933 56.0266 24.5419 59.2895 26.6824 63.241C25.803 62.956 24.1613 63.502 24.185 62.0957C22.8298 57.3101 28.6091 54.5217 26.824 49.7384C25.9933 46.8085 22.2078 45.1901 23.0416 41.6665C23.6576 38.7657 26.9092 36.7383 26.4535 33.5604C26.413 33.2811 26.3474 33.006 26.2577 32.7384C25.044 29.3096 22.5679 25.8797 24.0437 21.8774C24.4489 20.7346 25.2582 19.7586 25.9694 18.737C23.6143 19.9983 22.4262 22.6661 22.4748 25.3799C22.3722 28.3312 24.5499 30.8593 24.8596 33.5599C24.9814 34.6498 24.8032 35.7661 24.0432 36.95C22.4983 39.0483 20.4778 41.2609 21.4042 44.024C22.2849 46.8111 25.7574 48.4997 25.5436 51.7391C25.52 55.5714 21.0716 57.9571 22.3324 62.243L20.1184 61.524C19.2393 57.7154 23.2824 55.7672 23.3288 52.2433C23.9011 48.1915 18.7382 46.6879 19.0481 42.7377C19.0259 39.7366 21.6649 37.8358 22.8305 35.3114C23.0171 34.7473 23.0983 34.1536 23.0701 33.56C22.9273 30.7689 20.4149 28.5869 20.8318 25.4486C20.9721 23.139 21.7571 21.1143 23.2562 19.3775C21.1879 20.2091 20.3334 22.5921 19.7616 24.593C18.7699 27.801 21.1369 30.6863 21.3741 33.5601C21.4793 34.8294 21.1696 36.0912 19.9767 37.3813C18.2631 39.4022 16.5254 41.9533 17.7625 44.6702C19.073 47.6679 23.1886 50.0013 21.4034 53.74C20.4294 56.098 18.0977 57.8824 18.193 60.6676C17.575 60.4056 16.934 60.1445 16.4088 59.6693C16.4088 56.1223 21.45 53.9068 19.0478 50.1684C18.8353 50.9059 18.7893 51.9084 18.6228 52.7417C17.7893 54.9095 16.006 56.6447 15.3386 58.8859C14.2227 58.4548 13.0558 57.549 12.1274 56.5965L13.4132 55.809C13.2703 55.3317 12.8904 54.9274 12.5578 54.5226C11.723 54.4054 11.1747 54.9537 10.4863 55.1686C9.89166 54.6435 9.31753 54.1672 8.84376 53.5243C9.27055 52.3076 12.6054 53.3137 10.916 51.313C9.77537 50.5994 8.63054 51.6191 7.63175 52.0951L6.27878 50.384C7.44439 49.6704 8.60693 48.6677 10.0567 48.9554C10.414 49.5995 10.4389 50.5464 11.1272 50.8827C13.5776 50.8354 15.3138 48.98 17.1923 47.5263C15.883 45.5763 14.8174 42.8841 15.9803 40.5254C16.9119 38.1624 19.3401 36.1717 19.4501 33.5591C19.4741 32.912 19.3626 32.267 19.1227 31.6657C17.8389 28.3554 17.3858 23.8815 19.8362 20.9516C18.5039 21.3099 17.7182 22.9725 17.2656 24.2345C15.7926 27.4668 17.6552 30.4615 17.72 33.5591C17.734 34.1235 17.6764 34.6874 17.5487 35.2373C16.2876 37.7848 14.2442 40.0201 13.9124 42.9517C12.461 43.8785 11.2693 45.4993 9.20124 44.9524C9.12852 45.4995 9.29569 46.3335 9.48459 46.9534C7.84449 46.8842 6.72623 48.0944 5.34551 48.6657C4.60976 48.4294 4.41839 47.4775 4.13351 46.8117C5.74975 46.2652 6.91583 44.6432 8.77162 44.6687C8.98673 44.0704 8.65108 43.5223 8.55628 42.9514C6.24785 41.9259 2.58857 48.0214 2.2809 42.7365C4.58768 42.5938 6.06155 40.45 8.34625 40.2365L8.41449 38.5245C5.82189 38.2625 4.15405 40.9303 1.56251 40.6675L0.990976 38.3828C3.98876 38.5702 5.7749 35.881 8.62948 35.7363C9.00881 35.2369 9.0545 34.499 9.12769 33.809C6.0109 33.4024 3.87318 36.8597 0.565486 35.8097C0.565486 35.8097 0.451558 34.371 0.389694 33.5594H0.394181C0.381666 33.3799 0.367066 33.2005 0.35038 33.0213C3.29965 34.1668 5.89107 32.0462 8.4139 30.9517C9.05556 30.7596 10.0562 31.0927 10.3439 30.3789C10.3194 29.8311 11.3171 29.1907 10.4863 28.8086C6.79765 28.3073 4.34719 32.7612 0.564778 30.736L0.281433 30.1632C1.06771 19.4016 7.13047 8.99758 17.1914 3.8778C21.2659 1.54677 26.328 0.358922 31.4331 0.316495C37.5938 0.265086 43.8196 1.88312 48.4506 5.16469C52.9476 7.9259 57.2491 12.4768 59.5837 17.0965C61.8167 21.1444 62.8441 25.6862 63.1512 30.5213C59.2493 33.4726 56.6316 27.7411 52.6583 29.0238C52.8721 29.6439 52.9908 30.2858 53.4452 30.8096C56.9667 30.7845 59.3914 34.4758 63.0778 33.0209L63.0817 33.5594L63.0818 33.5592ZM18.2612 20.3062C15.7868 18.6871 12.65 20.2117 10.3441 21.0939C10.13 18.9261 9.25059 16.951 7.41676 15.5225C7.23885 15.4337 6.99293 15.2475 6.77145 15.2336C6.69728 15.2292 6.62351 15.2473 6.55985 15.2857C6.49619 15.324 6.44562 15.3808 6.41478 15.4484C7.24593 20.5672 3.92206 24.1388 1.56652 28.0215C2.35079 28.663 3.61085 28.5673 4.56218 28.3785C7.05928 27.3792 9.43807 25.6392 12.4111 26.2355C13.2905 24.7355 14.7677 23.2825 15.979 22.0923C16.7192 21.451 17.7358 21.0441 18.2612 20.3063V20.3062ZM25.8266 23.5208C25.7794 23.829 25.8502 24.3787 26.3251 24.1662C27.0637 23.1424 28.3712 23.9526 29.1794 24.0243V23.7362C28.736 23.0389 27.8237 22.6891 26.8971 22.7238C26.6813 22.7324 26.467 22.7617 26.2568 22.8113C26.1798 22.8255 26.1067 22.8558 26.0423 22.9003C25.9778 22.9447 25.9235 23.0023 25.8829 23.0693C25.8422 23.1363 25.8162 23.2111 25.8065 23.2888C25.7968 23.3666 25.8037 23.4455 25.8266 23.5204V23.5208ZM37.4578 20.4535C36.7935 18.9762 35.271 18.3791 33.8899 18.0219C33.2006 17.9342 32.5069 17.8852 31.812 17.8752C31.6813 17.8739 31.551 17.8722 31.4208 17.8752C29.4711 17.9146 27.608 18.4157 26.4699 20.0223C26.3065 20.4759 25.5884 21.1129 26.2553 21.5194C27.754 21.4236 29.4642 21.2357 30.4632 22.5228C30.4632 23.6671 31.2013 25.189 29.9647 25.7367C28.9403 24.7872 27.727 26.141 26.6118 25.3791C26.0878 25.069 25.7561 25.4307 25.5414 25.8831C25.2316 28.8348 26.7758 32.0928 29.5344 33.7352C30.6526 34.1389 32.1554 34.5226 33.3224 33.95C36.1288 32.6417 37.2915 29.6433 37.8145 26.8809C37.7443 26.3553 37.7689 25.3309 37.0323 25.3058C36.2003 25.8328 34.9868 25.5214 34.1052 25.3058C33.5838 25.4742 33.5598 26.238 32.9664 26.3827L32.6048 26.094C32.295 24.7862 32.104 22.9284 33.3186 22.0234C34.6756 21.4756 36.2692 21.2365 37.6723 21.6664C37.9343 21.2139 37.5306 20.8579 37.457 20.4534L37.4578 20.4535ZM36.0258 22.8012C35.9314 22.8038 35.84 22.8085 35.7468 22.8114C35.2485 23.1442 33.796 22.905 34.3206 24.0245C35.2248 23.3085 36.4856 23.8102 37.3894 24.1663C37.7234 24.0008 37.6514 23.6668 37.6728 23.3792C37.3824 22.8387 36.6892 22.7883 36.0257 22.8013L36.0258 22.8012ZM46.3832 12.7334C44.6225 12.6398 43.1483 13.6406 41.5309 14.0925C41.3902 12.7145 42.4358 11.2592 42.6744 9.87579C40.0589 10.0442 37.9874 11.6205 35.8228 12.8795C35.3205 11.6658 34.8204 10.451 34.3226 9.23513L37.1772 6.51977L37.2503 6.16191L33.3943 5.94706C32.7303 4.78225 32.4685 3.37919 31.6837 2.30704C31.0413 3.52148 30.6094 4.80672 29.9682 6.01962L26.1172 6.23519V6.51882L29.04 9.16055C28.6827 10.5185 28.3506 11.9939 27.4712 13.02C25.7593 11.9933 24.0711 10.876 22.1931 10.1627C21.7413 10.017 21.0972 9.77959 20.6929 10.0896C21.2867 11.3998 22.1182 12.8088 21.9784 14.2386C21.1929 14.094 20.5755 13.5898 19.8377 13.3779C18.9552 13.1367 17.9083 12.666 17.0521 12.9524C18.4796 14.9513 19.6447 17.0436 20.0478 19.4492C24.7834 17.161 30.3061 15.9026 36.0387 16.8806C38.7261 17.3084 41.1968 18.4044 43.5998 19.3067C43.6942 16.7844 45.2869 14.7577 46.3835 12.7319L46.3832 12.7334ZM54.5156 26.4506C56.94 27.0927 59.3718 29.737 61.939 28.0215C59.7031 24.3075 56.3753 20.8777 57.3009 16.0212C57.3241 15.9463 57.3314 15.8674 57.3221 15.7895C57.3129 15.7116 57.2874 15.6366 57.2474 15.5692C57.2073 15.5019 57.1535 15.4437 57.0895 15.3985C57.0255 15.3533 56.9527 15.3221 56.8759 15.3069C55.4255 15.9003 54.3022 17.3307 53.7282 18.7365C53.492 19.5683 53.3527 20.4521 53.0198 21.2362C51.2821 20.3308 49.4282 19.454 47.3114 19.6658C46.5476 19.761 45.4537 19.8111 45.3125 20.5958C47.7146 21.8809 49.6902 24.0254 51.1625 26.3095C52.188 26.1423 53.4451 26.2851 54.5154 26.4505L54.5156 26.4506ZM29.1109 29.8074L29.1794 30.2378C30.1089 30.8574 30.3948 31.9079 31.6823 31.8127C32.8232 31.8803 33.6794 30.8101 34.2477 29.9534C32.7037 29.7399 30.8242 30.0702 29.1109 29.8074V29.8074ZM30.3958 27.8799C30.4422 28.0704 30.2777 28.3562 30.5375 28.4528C31.2988 28.2873 32.6779 28.8581 33.1029 27.9532C32.8059 27.6204 32.3216 27.4692 31.8129 27.4692C31.3107 27.4651 30.8183 27.6079 30.3961 27.88L30.3958 27.8799Z" fill="#00643C"/>
<path opacity="0.99" d="M29.113 27.0533H34.3289V29.1984H29.113V27.0533Z" fill="white"/>
<path d="M30.0763 28.2004C30.7503 28.3601 30.9172 28.5991 31.4495 28.6662C32.0162 28.6561 31.9345 28.5409 32.9217 28.1998C32.9461 28.1875 32.9671 28.1696 32.9832 28.1476C32.9993 28.1255 33.0099 28.1 33.0142 28.073C33.0185 28.046 33.0163 28.0184 33.0078 27.9925C32.9994 27.9665 32.9849 27.943 32.9655 27.9237C32.3516 27.3145 31.928 27.7499 31.5439 27.7615C31.0336 27.7668 30.5554 27.3242 30.0572 27.8997C29.9723 28.0164 29.9281 28.1314 30.0762 28.2005L30.0763 28.2004Z" fill="#106E33"/>
<path d="M54.7168 63.3946V60.3395H53.6268V59.718H56.5459V60.34H55.458V63.3946H54.7165H54.7168ZM57.0171 63.3946V59.7173H58.1269L58.7933 62.2257L59.4523 59.7173H60.5648V63.3946H59.8757V60.5L59.1466 63.3945H58.4331L57.7066 60.5V63.3946H57.0176H57.0171Z" fill="#106E33"/>
</g>
<defs>
<clipPath id="clip0_31_2">
<rect width="63.6074" height="64" fill="white"/>
</clipPath>
</defs>
</svg>
